<svg id="Vrstva_1" data-name="Vrstva 1" xmlns="http://www.w3.org/2000/svg" viewBox="0 0 775.24 775.24"><defs><style>.cls-1{fill:#fff;fill-rule:evenodd;}.cls-2{fill:none;}</style></defs><path class="cls-1" d="M139.29,69.46c.8,0,1,0,1.8-.8l20.22-20.41-20.22-20a2.83,2.83,0,0,0-.86-.71,2.79,2.79,0,0,0-.94-.08h-8.81a.94.94,0,0,0-.8,1.59L149.3,48.65,130.08,67.86a1,1,0,0,0,.8,1.6Z"/><path class="cls-1" d="M333.1,69.46c.8,0,1,0,1.8-.8l20.22-20.41-20.22-20a2.83,2.83,0,0,0-.86-.71,2.79,2.79,0,0,0-.94-.08h-8.81a.94.94,0,0,0-.8,1.59l19.62,19.61L323.89,67.86a1,1,0,0,0,.8,1.6Z"/><path class="cls-1" d="M430,69.46a1.89,1.89,0,0,0,1.81-.8L452,48.25l-20.22-20a2.83,2.83,0,0,0-.87-.71,2.79,2.79,0,0,0-.94-.08h-8.8a.94.94,0,0,0-.81,1.59L440,48.65,420.8,67.86a1,1,0,0,0,.8,1.6Z"/><path class="cls-1" d="M720.72,69.46c.8,0,1,0,1.8-.8l20.22-20.41-20.22-20a1.73,1.73,0,0,0-1.8-.79h-8.81a.94.94,0,0,0-.8,1.59l19.62,19.61L711.51,67.86a1,1,0,0,0,.8,1.6Z"/><path class="cls-1" d="M42.39,166.36c.8,0,1,0,1.8-.8l20.22-20.4-20.22-20a3.09,3.09,0,0,0-.86-.72,2.85,2.85,0,0,0-.94-.08H33.58a1,1,0,0,0-.8,1.6L52.4,145.56l-19.22,19.2a1,1,0,0,0,.8,1.6Z"/><path class="cls-1" d="M139.29,166.36c.8,0,1,0,1.8-.8l20.22-20.4-20.22-20a3.09,3.09,0,0,0-.86-.72,2.79,2.79,0,0,0-.94-.08h-8.81a1,1,0,0,0-.8,1.6l19.62,19.61-19.22,19.2a1,1,0,0,0,.8,1.6Z"/><path class="cls-1" d="M236.2,166.36c.8,0,1,0,1.8-.8l20.22-20.4-20.22-20a3.09,3.09,0,0,0-.86-.72,2.85,2.85,0,0,0-.94-.08h-8.81a1,1,0,0,0-.8,1.6l19.62,19.61L227,164.76a1,1,0,0,0,.8,1.6Z"/><path class="cls-1" d="M333.1,166.36c.8,0,1,0,1.8-.8l20.22-20.4-20.22-20a3.09,3.09,0,0,0-.86-.72,2.79,2.79,0,0,0-.94-.08h-8.81a1,1,0,0,0-.8,1.6l19.62,19.61-19.22,19.2a1,1,0,0,0,.8,1.6Z"/><path class="cls-1" d="M430,166.36a1.89,1.89,0,0,0,1.81-.8L452,145.16l-20.22-20a3.09,3.09,0,0,0-.87-.72,2.79,2.79,0,0,0-.94-.08h-8.8a1,1,0,0,0-.81,1.6L440,145.56l-19.22,19.2a1,1,0,0,0,.8,1.6Z"/><path class="cls-1" d="M623.81,166.36c.81,0,1,0,1.81-.8l20.22-20.4-20.22-20a3.23,3.23,0,0,0-.87-.72,2.79,2.79,0,0,0-.94-.08H615a1,1,0,0,0-.81,1.6l19.62,19.61-19.22,19.2a1,1,0,0,0,.81,1.6Z"/><path class="cls-1" d="M333.1,263.27c.8,0,1,0,1.8-.8l20.22-20.41-20.22-20a2.83,2.83,0,0,0-.86-.71,2.49,2.49,0,0,0-.94-.09h-8.81a1,1,0,0,0-.8,1.6l19.62,19.61-19.22,19.21a1,1,0,0,0,.8,1.6Z"/><path class="cls-1" d="M526.91,263.27c.8,0,1,0,1.8-.8l20.22-20.41-20.22-20a2.83,2.83,0,0,0-.86-.71,2.55,2.55,0,0,0-.94-.09H518.1a1,1,0,0,0-.8,1.6l19.62,19.61L517.7,261.67a1,1,0,0,0,.8,1.6Z"/><path class="cls-1" d="M720.72,263.27c.8,0,1,0,1.8-.8l20.22-20.41-20.22-20a2.83,2.83,0,0,0-.86-.71,2.55,2.55,0,0,0-.94-.09h-8.81a1,1,0,0,0-.8,1.6l19.62,19.61-19.22,19.21a1,1,0,0,0,.8,1.6Z"/><path class="cls-1" d="M42.39,360.17c.8,0,1,0,1.8-.8L64.41,339,44.19,319a3.09,3.09,0,0,0-.86-.72,2.85,2.85,0,0,0-.94-.08H33.58a1,1,0,0,0-.8,1.6L52.4,339.37l-19.22,19.2a1,1,0,0,0,.8,1.6Z"/><path class="cls-1" d="M139.29,360.17c.8,0,1,0,1.8-.8L161.31,339l-20.22-20a3.09,3.09,0,0,0-.86-.72,2.79,2.79,0,0,0-.94-.08h-8.81a1,1,0,0,0-.8,1.6l19.62,19.61-19.22,19.2a1,1,0,0,0,.8,1.6Z"/><path class="cls-1" d="M236.2,360.17c.8,0,1,0,1.8-.8L258.22,339,238,319a3.09,3.09,0,0,0-.86-.72,2.85,2.85,0,0,0-.94-.08h-8.81a1,1,0,0,0-.8,1.6l19.62,19.61L227,358.57a1,1,0,0,0,.8,1.6Z"/><path class="cls-1" d="M333.1,360.17c.8,0,1,0,1.8-.8L355.12,339,334.9,319a3.09,3.09,0,0,0-.86-.72,2.79,2.79,0,0,0-.94-.08h-8.81a1,1,0,0,0-.8,1.6l19.62,19.61-19.22,19.2a1,1,0,0,0,.8,1.6Z"/><path class="cls-1" d="M430,360.17a1.89,1.89,0,0,0,1.81-.8L452,339l-20.22-20a3.09,3.09,0,0,0-.87-.72,2.79,2.79,0,0,0-.94-.08h-8.8a1,1,0,0,0-.81,1.6L440,339.37l-19.22,19.2a1,1,0,0,0,.8,1.6Z"/><path class="cls-1" d="M526.91,360.17c.8,0,1,0,1.8-.8L548.93,339l-20.22-20a3.09,3.09,0,0,0-.86-.72,2.85,2.85,0,0,0-.94-.08H518.1a1,1,0,0,0-.8,1.6l19.62,19.61-19.22,19.2a1,1,0,0,0,.8,1.6Z"/><path class="cls-1" d="M623.81,360.17c.81,0,1,0,1.81-.8L645.84,339l-20.22-20a3.23,3.23,0,0,0-.87-.72,2.79,2.79,0,0,0-.94-.08H615a1,1,0,0,0-.81,1.6l19.62,19.61-19.22,19.2a1,1,0,0,0,.81,1.6Z"/><path class="cls-1" d="M720.72,360.17c.8,0,1,0,1.8-.8L742.74,339l-20.22-20a3.09,3.09,0,0,0-.86-.72,2.85,2.85,0,0,0-.94-.08h-8.81a1,1,0,0,0-.8,1.6l19.62,19.61-19.22,19.2a1,1,0,0,0,.8,1.6Z"/><path class="cls-1" d="M42.39,457.08c.8,0,1,0,1.8-.8l20.22-20.41-20.22-20a2.83,2.83,0,0,0-.86-.71,2.55,2.55,0,0,0-.94-.09H33.58a1,1,0,0,0-.8,1.6L52.4,436.27,33.18,455.48a1,1,0,0,0,.8,1.6Z"/><path class="cls-1" d="M236.2,457.08c.8,0,1,0,1.8-.8l20.22-20.41-20.22-20a2.83,2.83,0,0,0-.86-.71,2.55,2.55,0,0,0-.94-.09h-8.81a1,1,0,0,0-.8,1.6l19.62,19.61L227,455.48a1,1,0,0,0,.8,1.6Z"/><path class="cls-1" d="M623.81,457.08c.81,0,1,0,1.81-.8l20.22-20.41-20.22-20a3,3,0,0,0-.87-.71,2.49,2.49,0,0,0-.94-.09H615a1,1,0,0,0-.81,1.6l19.62,19.61L614.6,455.48a1,1,0,0,0,.81,1.6Z"/><path class="cls-1" d="M139.29,554c.8,0,1,0,1.8-.8l20.22-20.4-20.22-20a3.09,3.09,0,0,0-.86-.72,2.79,2.79,0,0,0-.94-.08h-8.81a1,1,0,0,0-.8,1.6l19.62,19.6-19.22,19.21a1,1,0,0,0,.8,1.6Z"/><path class="cls-1" d="M236.2,554c.8,0,1,0,1.8-.8l20.22-20.4-20.22-20a3.09,3.09,0,0,0-.86-.72,2.85,2.85,0,0,0-.94-.08h-8.81a1,1,0,0,0-.8,1.6l19.62,19.6L227,552.38a1,1,0,0,0,.8,1.6Z"/><path class="cls-1" d="M333.1,554c.8,0,1,0,1.8-.8l20.22-20.4-20.22-20a3.09,3.09,0,0,0-.86-.72,2.79,2.79,0,0,0-.94-.08h-8.81a1,1,0,0,0-.8,1.6l19.62,19.6-19.22,19.21a1,1,0,0,0,.8,1.6Z"/><path class="cls-1" d="M430,554a1.89,1.89,0,0,0,1.81-.8L452,532.78l-20.22-20a3.09,3.09,0,0,0-.87-.72A2.79,2.79,0,0,0,430,512h-8.8a1,1,0,0,0-.81,1.6L440,533.17,420.8,552.38a1,1,0,0,0,.8,1.6Z"/><path class="cls-1" d="M526.91,554c.8,0,1,0,1.8-.8l20.22-20.4-20.22-20a3.09,3.09,0,0,0-.86-.72,2.85,2.85,0,0,0-.94-.08H518.1a1,1,0,0,0-.8,1.6l19.62,19.6L517.7,552.38a1,1,0,0,0,.8,1.6Z"/><path class="cls-1" d="M623.81,554c.81,0,1,0,1.81-.8l20.22-20.4-20.22-20a3.23,3.23,0,0,0-.87-.72,2.79,2.79,0,0,0-.94-.08H615a1,1,0,0,0-.81,1.6l19.62,19.6L614.6,552.38a1,1,0,0,0,.81,1.6Z"/><path class="cls-1" d="M720.72,554c.8,0,1,0,1.8-.8l20.22-20.4-20.22-20a3.09,3.09,0,0,0-.86-.72,2.85,2.85,0,0,0-.94-.08h-8.81a1,1,0,0,0-.8,1.6l19.62,19.6-19.22,19.21a1,1,0,0,0,.8,1.6Z"/><path class="cls-1" d="M333.1,650.89c.8,0,1,0,1.8-.8l20.22-20.41-20.22-20A2.83,2.83,0,0,0,334,609a2.49,2.49,0,0,0-.94-.09h-8.81a1,1,0,0,0-.8,1.6l19.62,19.61-19.22,19.21a1,1,0,0,0,.8,1.6Z"/><path class="cls-1" d="M430,650.89a1.89,1.89,0,0,0,1.81-.8L452,629.68l-20.22-20a2.83,2.83,0,0,0-.87-.71,2.49,2.49,0,0,0-.94-.09h-8.8a1,1,0,0,0-.81,1.6L440,630.08,420.8,649.29a1,1,0,0,0,.8,1.6Z"/><path class="cls-1" d="M526.91,650.89c.8,0,1,0,1.8-.8l20.22-20.41-20.22-20a2.83,2.83,0,0,0-.86-.71,2.55,2.55,0,0,0-.94-.09H518.1a1,1,0,0,0-.8,1.6l19.62,19.61L517.7,649.29a1,1,0,0,0,.8,1.6Z"/><path class="cls-1" d="M623.81,650.89c.81,0,1,0,1.81-.8l20.22-20.41-20.22-20a3,3,0,0,0-.87-.71,2.49,2.49,0,0,0-.94-.09H615a1,1,0,0,0-.81,1.6l19.62,19.61L614.6,649.29a1,1,0,0,0,.81,1.6Z"/><path class="cls-1" d="M720.72,650.89c.8,0,1,0,1.8-.8l20.22-20.41-20.22-20a2.83,2.83,0,0,0-.86-.71,2.55,2.55,0,0,0-.94-.09h-8.81a1,1,0,0,0-.8,1.6l19.62,19.61-19.22,19.21a1,1,0,0,0,.8,1.6Z"/><path class="cls-1" d="M139.29,747.79c.8,0,1,0,1.8-.8l20.22-20.41-20.22-20a3.09,3.09,0,0,0-.86-.72,2.79,2.79,0,0,0-.94-.08h-8.81a1,1,0,0,0-.8,1.6L149.3,727l-19.22,19.21a1,1,0,0,0,.8,1.6Z"/><path class="cls-1" d="M236.2,747.79c.8,0,1,0,1.8-.8l20.22-20.41-20.22-20a3.09,3.09,0,0,0-.86-.72,2.85,2.85,0,0,0-.94-.08h-8.81a1,1,0,0,0-.8,1.6L246.21,727,227,746.19a1,1,0,0,0,.8,1.6Z"/><path class="cls-1" d="M333.1,747.79c.8,0,1,0,1.8-.8l20.22-20.41-20.22-20a3.09,3.09,0,0,0-.86-.72,2.79,2.79,0,0,0-.94-.08h-8.81a1,1,0,0,0-.8,1.6L343.11,727l-19.22,19.21a1,1,0,0,0,.8,1.6Z"/><path class="cls-1" d="M430,747.79a1.89,1.89,0,0,0,1.81-.8L452,726.58l-20.22-20a3.09,3.09,0,0,0-.87-.72,2.79,2.79,0,0,0-.94-.08h-8.8a1,1,0,0,0-.81,1.6L440,727,420.8,746.19a1,1,0,0,0,.8,1.6Z"/><rect class="cls-2" width="775.24" height="775.24"/></svg>