<svg id="Vrstva_1" data-name="Vrstva 1" xmlns="http://www.w3.org/2000/svg" viewBox="0 0 283.1534 251.4464">
  <g id="logoMark">
    <path id="logoMark_CompoundPathItem_" data-name="logoMark &lt;CompoundPathItem&gt;" d="M244.7939,234.7656c5.9059,0,12.8625-2.3135,18.1348-5.6939v-54.819c-5.4843-3.574-12.0192-6.3253-18.1348-6.3253-12.86,0-22.3424,10.549-22.3424,34.3662C222.4515,226.1268,231.5281,234.7656,244.7939,234.7656ZM262.9287,99.8587a1.9883,1.9883,0,0,1,2.1038-2.1038H281.05a1.9883,1.9883,0,0,1,2.1038,2.1038V247.8563A1.99,1.99,0,0,1,281.05,249.96H269.66a1.7015,1.7015,0,0,1-1.8918-1.6844l-2.1039-7.1664c-10.5329,7.3784-18.9758,10.3233-28.0362,10.3233-23.3932,0-36.0437-17.7016-36.0437-49.3326,0-32.2646,13.911-50.5953,38.3572-50.5953,8.6387,0,16.0171,3.1546,22.9714,8.2194Z" style="fill: #fff"/>
    <path id="logoMark_PathItem_" data-name="logoMark &lt;PathItem&gt;" d="M47.4338,151.5047a72.7981,72.7981,0,0,1,27.4049,5.2746,1.9371,1.9371,0,0,1,.8411,2.7328l-4.6432,11.8118a2.2593,2.2593,0,0,1-2.9448.8411,53.5034,53.5034,0,0,0-19.1879-3.3643c-16.2245,0-27.8243,10.5329-27.8243,32.6841,0,23.6051,13.7013,32.6817,27.8243,32.6817,7.5881,0,12.4432-1.26,20.2409-4.2214,1.0508-.4217,2.5232-.212,2.9426.841l4.6431,11.6a2.26,2.26,0,0,1-.841,2.9449c-7.5881,3.8021-17.6993,6.1156-28.8774,6.1156C18.9758,251.4464,0,233.519,0,201.4848.0161,170.4667,18.3444,151.5047,47.4338,151.5047Z" style="fill: #fff"/>
    <path id="logoMark_PathItem_2" data-name="logoMark &lt;PathItem&gt;" d="M124.04,236.6759c0-9.2725,5.2722-14.9664,14.7544-14.9664,9.48,0,14.7543,5.6939,14.7543,14.9664,0,9.48-5.2745,14.7543-14.7543,14.7543C129.3121,251.43,124.04,246.1557,124.04,236.6759Z" style="fill: #fff"/>
    <path id="logoMark_PathItem_3" data-name="logoMark &lt;PathItem&gt;" d="M12.5814,3.5763A2.1042,2.1042,0,0,1,14.0539,0H31.5411A3.4507,3.4507,0,0,1,34.486,1.2628L77.2767,42.5856,34.486,83.9107a3.4484,3.4484,0,0,1-2.9449,1.26H14.0539a2.1025,2.1025,0,0,1-1.4725-3.5739L53.9,42.6017Z" style="fill: #fff"/>
  </g>
</svg>
